<svg width="38" height="39" viewBox="0 0 38 39" fill="none" xmlns="http://www.w3.org/2000/svg">
<g clip-path="url(#clip0_120_57)">
<path d="M0.91544 19.2727C0.914555 22.4654 1.75048 25.5829 3.33997 28.3307L0.763428 37.719L10.3907 35.1998C13.0535 36.6465 16.0369 37.4045 19.0687 37.4047H19.0767C29.0851 37.4047 37.2323 29.277 37.2365 19.2869C37.2385 14.4461 35.3511 9.89401 31.9222 6.46929C28.4938 3.04487 23.9341 1.15797 19.0759 1.15576C9.06627 1.15576 0.91972 9.28306 0.915588 19.2727" fill="url(#paint0_linear_120_57)"/>
<path d="M0.267046 19.2667C0.266013 22.5743 1.13189 25.8033 2.77805 28.6495L0.109131 38.3744L10.0816 35.7649C12.8293 37.26 15.923 38.0483 19.0709 38.0495H19.0791C29.4466 38.0495 37.8864 29.6294 37.8908 19.2817C37.8926 14.2669 35.9374 9.55122 32.3859 6.00382C28.834 2.45685 24.1113 0.502062 19.0791 0.5C8.70977 0.5 0.271326 8.91892 0.267194 19.2667H0.267046ZM6.20585 28.1593L5.83349 27.5694C4.26821 25.0856 3.44203 22.2153 3.44321 19.2679C3.44661 10.6671 10.4604 3.66962 19.085 3.66962C23.2616 3.67138 27.1868 5.29625 30.1391 8.24435C33.0912 11.1927 34.7157 15.112 34.7146 19.2806C34.7108 27.8814 27.6968 34.8797 19.0791 34.8797H19.0729C16.2668 34.8782 13.5148 34.1262 11.1148 32.705L10.5437 32.367L4.62581 33.9154L6.20585 28.1592V28.1593Z" fill="url(#paint1_linear_120_57)"/>
<path d="M14.3773 11.421C14.0251 10.64 13.6546 10.6242 13.3197 10.6105C13.0455 10.5987 12.732 10.5996 12.4188 10.5996C12.1054 10.5996 11.596 10.7173 11.1655 11.1864C10.7346 11.656 9.52026 12.7907 9.52026 15.0985C9.52026 17.4065 11.2046 19.6368 11.4395 19.9501C11.6746 20.2628 14.6912 25.1504 19.4688 27.0306C23.4394 28.5932 24.2475 28.2824 25.1092 28.2041C25.9711 28.126 27.8903 27.0697 28.2818 25.9743C28.6737 24.8791 28.6737 23.9403 28.5562 23.7441C28.4387 23.5486 28.1252 23.4312 27.6552 23.1968C27.185 22.9621 24.8741 21.8273 24.4433 21.6707C24.0124 21.5143 23.699 21.4362 23.3856 21.9059C23.0721 22.3749 22.172 23.4312 21.8976 23.7441C21.6235 24.0576 21.3492 24.0967 20.8793 23.8621C20.4089 23.6267 18.8951 23.132 17.0992 21.534C15.7019 20.2906 14.7585 18.7552 14.4843 18.2855C14.2101 17.8165 14.4549 17.5623 14.6906 17.3286C14.9018 17.1184 15.1608 16.7808 15.3961 16.507C15.6304 16.233 15.7086 16.0376 15.8654 15.7248C16.0223 15.4116 15.9437 15.1377 15.8264 14.903C15.7086 14.6684 14.7952 12.3487 14.3773 11.4212" fill="white"/>
</g>
<defs>
<linearGradient id="paint0_linear_120_57" x1="19" y1="37.719" x2="19" y2="1.15576" gradientUnits="userSpaceOnUse">
<stop stop-color="#1FAF38"/>
<stop offset="1" stop-color="#60D669"/>
</linearGradient>
<linearGradient id="paint1_linear_120_57" x1="19" y1="38.3744" x2="19" y2="0.5" gradientUnits="userSpaceOnUse">
<stop stop-color="#F9F9F9"/>
<stop offset="1" stop-color="white"/>
</linearGradient>
<clipPath id="clip0_120_57">
<rect width="37.7817" height="38" fill="white" transform="translate(0.109131 0.5)"/>
</clipPath>
</defs>
</svg>
